<svg id="evst0PClJ8R1" xmlns="http://www.w3.org/2000/svg" xmlns:xlink="http://www.w3.org/1999/xlink" viewBox="0 0 50 50" shape-rendering="geometricPrecision" text-rendering="geometricPrecision"><rect width="35.531816" height="23.920111" rx="4" ry="4" transform="matrix(1.021037 0 0 0.817953 6.860351 15.217237)" fill="#d2dbed" stroke-width="0"/><rect width="17.765908" height="4.958198" rx="1" ry="1" transform="matrix(.762368 0 0 1.221335 8.720232 36.046297)" fill="#d2dbed" stroke-width="0"/><rect width="17.765908" height="4.958198" rx="1" ry="1" transform="matrix(.762368 0 0 1.221335 28.513584 36.046297)" fill="#d2dbed" stroke-width="0"/><rect width="17.765908" height="4.958198" rx="1" ry="1" transform="matrix(.762368 0 0 1.221335 27.932317 8.07678)" fill="#d2dbed" stroke-width="0"/><rect width="17.765908" height="4.958198" rx="1" ry="1" transform="matrix(.762368 0 0 1.221335 9.301498 8.07678)" fill="#d2dbed" stroke-width="0"/><rect width="14.706693" height="1.315012" rx="0.66" ry="0.66" transform="matrix(1 0 0 0.789474 8.720232 6.487584)" fill="#d2dbed" stroke-width="0"/><rect width="14.706693" height="1.315012" rx="0.66" ry="0.66" transform="matrix(1 0 0 0.789474 27.351051 6.487584)" fill="#d2dbed" stroke-width="0"/><rect width="14.706693" height="1.315012" rx="0.66" ry="0.66" transform="matrix(1 0 0 0.789474 27.932318 42.617577)" fill="#d2dbed" stroke-width="0"/><rect width="14.706693" height="1.315012" rx="0.66" ry="0.66" transform="matrix(1 0 0 0.789474 8.138966 42.617577)" fill="#d2dbed" stroke-width="0"/></svg>
