<svg width="182px" height="40px" viewBox="0 0 182 40" version="1.1" xmlns="http://www.w3.org/2000/svg" xmlns:xlink="http://www.w3.org/1999/xlink">
    <g id="Welcome" stroke="none" stroke-width="1" fill="none" fill-rule="evenodd">
        <g id="Desktop" transform="translate(-609.000000, -63.000000)" fill="#20294E">
            <g id="navbar" transform="translate(115.000000, 63.000000)">
                <g id="logo" transform="translate(494.000000, 0.000000)">
                    <path d="M24.4851674,28.5093225 C24.2007327,28.5093225 23.9703349,28.7415218 23.9703349,29.0281895 C23.9703349,34.159072 19.9345312,38.3575965 14.8941995,38.5695622 L14.4925645,38.5781412 L7.92910985,38.5781412 L7.92910985,1.65660348 L8.62350538,1.65660348 C8.90794016,1.65660348 9.13833793,1.42432333 9.13833793,1.13773656 C9.13833793,0.851149786 8.90794016,0.61886963 8.62350538,0.61886963 L7.44437791,0.61886963 L7.42940766,0.617089085 L1.72406064,0.615794144 C1.71373356,0.615794144 1.70404693,0.618303093 1.69396002,0.61886963 L0.514832557,0.61886963 C0.230397776,0.61886963 0,0.851149786 0,1.13773656 C0,1.42432333 0.230397776,1.65660348 0.514832557,1.65660348 L1.20922808,1.65660348 L1.20922808,38.578384 L0.514832557,38.578384 C0.230397776,38.5781412 0,38.8103404 0,39.0970082 C0,39.3833521 0.230397776,39.6157941 0.514832557,39.6157941 L24.4851674,39.6157941 C24.7695222,39.6157941 25,39.3833521 25,39.0970082 L25,29.0281895 C25,28.7415218 24.7695222,28.5093225 24.4851674,28.5093225" id="Fill-1"></path>
                    <path d="M35.4929655,1.65344922 C35.7730132,1.65344922 36,1.42124951 36,1.13458121 C36,0.847993847 35.7730132,0.615794144 35.4929655,0.615794144 L27.507271,0.615794144 C27.2271445,0.615794144 27.0002365,0.847993847 27.0002365,1.13458121 C27.0002365,1.42124951 27.2271445,1.65344922 27.507271,1.65344922 L28.1911486,1.65344922 L28.1911486,38.5750636 L27.5070345,38.5750636 C27.2269868,38.5750636 27,38.8072633 27,39.0938506 C27,39.3802761 27.2269868,39.6127187 27.5070345,39.6127187 L28.6683808,39.6127187 L28.6830454,39.6144183 L34.3020534,39.6157941 C34.3122241,39.6157941 34.321764,39.6132852 34.3316981,39.6127187 L35.4929655,39.6127187 C35.7730132,39.6127187 36,39.3802761 36,39.0938506 C36,38.8072633 35.7730132,38.5750636 35.4929655,38.5750636 L34.8090879,38.5750636 L34.8090879,1.65344922 L35.4929655,1.65344922 Z" id="Fill-3"></path>
                    <path d="M83.1875218,35.344591 C83.1875218,37.1277257 81.7287771,38.578384 79.9357079,38.578384 L72.7004769,38.578384 L72.7004769,1.65571321 L79.9357079,1.65571321 C81.7287771,1.65571321 83.1875218,3.10637158 83.1875218,4.88950621 L83.1875218,16.3634984 C83.1875218,18.1466331 81.7287771,19.5972914 79.9357079,19.5972914 C79.9286499,19.5972914 79.9219975,19.5989101 79.9151017,19.5993957 L74.1631968,19.5993957 C73.8749526,19.5993957 73.6414691,19.8317568 73.6414691,20.1181817 C73.6414691,20.4047685 73.8749526,20.6370486 74.1631968,20.6370486 L79.9357079,20.6370486 C81.7287771,20.6370486 83.1875218,22.0876261 83.1875218,23.8707607 L83.1875218,35.344591 Z M83.1240805,20.1169677 C87.1150425,18.7874673 90,15.0367498 90,10.6262595 C90,5.10762294 85.4852009,0.617898424 79.9357079,0.617898424 L72.1994365,0.617898424 L72.1890522,0.61676535 L65.186818,0.615794144 C64.8986548,0.615794144 64.6651713,0.847993366 64.6651713,1.13458014 C64.6651713,1.42100504 64.8986548,1.65344706 65.186818,1.65344706 L65.8905136,1.65344706 L65.8905136,19.5968868 L54.0434556,19.5968868 L54.0434556,18.8970517 C54.0434556,18.610465 53.809972,18.3782657 53.5217278,18.3782657 C53.2335647,18.3782657 53,18.610465 53,18.8970517 L53,21.3342938 C53,21.6208805 53.2335647,21.8531607 53.5217278,21.8531607 C53.809972,21.8531607 54.0434556,21.6208805 54.0434556,21.3342938 L54.0434556,20.6345397 L65.8905136,20.6345397 L65.8905136,38.5750657 L65.186818,38.5750657 C64.8986548,38.5750657 64.6651713,38.807265 64.6651713,39.0938517 C64.6651713,39.3804385 64.8986548,39.6127187 65.186818,39.6127187 L66.3818188,39.6127187 L66.3969895,39.6144992 L79.9357079,39.6157941 C85.4852009,39.6157941 90,35.1260696 90,29.6073521 C90,25.1971046 87.1150425,21.4463871 83.1240805,20.1169677 L83.1240805,20.1169677 Z" id="Fill-5"></path>
                    <path d="M62.4851674,28.5093225 C62.2007327,28.5093225 61.9703349,28.7415218 61.9703349,29.0281895 C61.9703349,34.159072 57.9345312,38.3575965 52.8941995,38.5695622 L52.493285,38.5780603 L45.9291099,38.5781412 L45.9291099,1.65344706 L52.4940055,1.65344706 C57.7192638,1.65344706 61.9700947,5.93751866 61.9700947,11.2032369 C61.9700947,11.4898237 62.2005726,11.7220229 62.4849273,11.7220229 C62.7693621,11.7220229 63,11.4898237 63,11.2032369 L63,1.13458014 C63,0.847993366 62.7693621,0.615794144 62.4849273,0.615794144 L38.5147525,0.615794144 C38.2303978,0.615794144 38,0.847993366 38,1.13458014 C38,1.42100504 38.2303978,1.65344706 38.5147525,1.65344706 L39.2092281,1.65344706 L39.2092281,38.5750657 L38.5147525,38.5750657 C38.2303978,38.5750657 38,38.807265 38,39.0938517 C38,39.3804385 38.2303978,39.6127187 38.5147525,39.6127187 L39.69396,39.6127187 L39.7089303,39.6144992 L62.4851674,39.6157941 C62.7695222,39.6157941 63,39.3835949 63,39.0970082 L63,29.0283513 C63,28.7415218 62.7693621,28.5093225 62.4851674,28.5093225" id="Fill-7"></path>
                    <path d="M91.6937036,33.0818893 C92.5070311,37.1993986 96.6434467,39.9073028 100.787624,38.8679417 C104.611,37.9089323 106.988807,34.1805921 106.357526,30.4176893 C106.049527,28.5817065 105.170503,27.0551022 103.733736,25.8722786 C102.039224,24.4771883 100.079123,23.935014 97.9176118,24.2435104 C95.9657537,24.5220955 94.3663856,25.4743687 93.1419932,27.0262333 C92.1662242,28.2630258 91.6409701,29.6765601 91.5587091,31.2541662 C91.5485465,31.4493521 91.6072015,31.5442988 91.801251,31.6066877 C92.4841453,31.8261717 93.161038,32.0644204 93.838731,32.2999426 C94.2511562,32.4433249 94.661741,32.5923206 95.0712055,32.744123 C95.2108411,32.7959266 95.2987835,32.9012982 95.2438895,33.0543836 C95.1880353,33.2101956 95.0646438,33.2624002 94.9035627,33.2001717 C94.8817971,33.1918317 91.8623066,32.146376 91.6000797,32.059208 C91.5175786,32.2636961 91.6449712,32.2855884 91.7565196,32.3251227 C92.6457865,32.6402751 93.533133,32.9608002 94.4241604,33.2709807 C94.7179953,33.3732248 94.9698196,33.5169278 95.1737916,33.7622334 C95.3375134,33.9590232 95.5346837,34.130713 95.7307338,34.2973508 C96.9263989,35.3140178 98.2426548,35.9806492 99.8781121,35.7242772 C100.981274,35.5513042 101.917272,35.0899629 102.65266,34.2248578 C102.865114,33.9749813 103.166551,33.7182885 103.056443,33.5198147 C102.946335,33.3214211 102.475735,33.4777944 102.382751,33.5055406 C101.71218,33.7056984 101.117708,33.8322405 100.426812,33.9580609 C99.3594998,34.1475532 99.16457,34.2851617 98.3282766,34.2851617 C97.5988105,34.2851617 96.7552352,34.0945467 96.6476878,34.0593427 C96.5401403,34.0242188 96.2062151,33.8098671 96.2505464,33.4808417 C96.2967182,33.1385846 96.5180547,33.0433974 96.6476878,33.0008959 C96.93064,32.9080343 97.7134797,32.8101205 98.3470014,32.8172576 C99.1184783,32.8172576 99.7779265,32.9142892 100.426812,33.2381022 C100.627823,33.3384217 100.816672,33.4247879 101.032167,33.3923103 C101.836932,33.2709807 102.311773,33.1436367 103.132062,33.0008959 C103.411974,32.9521396 103.612345,32.9818104 103.612345,33.2381022 C103.612345,33.7109109 103.401331,34.0518849 103.132062,34.4250958 C102.083955,35.8777636 99.8956366,36.5492866 98.1625543,36.157792 C97.0510707,35.9066325 96.0816233,35.3541135 95.2978233,34.5534823 C94.720716,33.963995 94.0566266,33.6129971 93.2999535,33.3701775 C92.8325542,33.2201393 92.3703563,33.0535817 91.9052776,32.8961659 C91.8340594,32.8720283 91.7598805,32.8570325 91.6384095,32.8250361 C91.6648162,32.9474885 91.6804202,33.0144483 91.6937036,33.0818893 M99.0920715,23.6163332 C103.400931,23.6658114 107.018414,27.1382607 107,31.632349 C106.979684,36.4847325 102.957458,39.727674 98.9815633,39.6128399 C94.7863328,39.7025741 90.9709592,36.154424 91.0001666,31.568276 C91.0278537,27.2077065 94.6090075,23.5648503 99.0920715,23.6163332" id="Fill-9"></path>
                    <path d="M101.994707,28.1498233 C102.033003,28.7533077 101.647545,29.1388562 101.176421,29.4771211 C100.673494,29.8381877 100.164906,30.1926138 99.6618126,30.5533604 C99.5586631,30.6273659 99.4646713,30.6403268 99.3591907,30.5664814 C98.809809,30.181733 98.2631747,29.7937844 97.71013,29.4136764 C96.8879307,28.8487548 96.8356482,27.929487 97.2677275,27.3010407 C97.7198705,26.6434722 98.5960172,26.4340968 99.3440388,26.8005238 C99.4179668,26.8366865 99.5429284,26.8626084 99.6050346,26.830206 C100.906018,26.152076 102.089115,27.2172745 101.994707,28.1498233" id="Fill-11"></path>
                    <path d="M132.610282,39.6157941 C132.896107,39.6157941 133.12774,39.3833439 133.12774,39.0969898 L133.12774,29.0284634 C133.12774,28.7418666 132.896107,28.5096591 132.610282,28.5096591 C132.324457,28.5096591 132.092823,28.7418666 132.092823,29.0284634 C132.092823,34.1591223 128.03635,38.3574712 122.970309,38.5693635 L122.566676,38.5779427 L115.969708,38.5779427 L115.969708,20.6352459 L123.513766,20.6352459 L123.513766,21.3351866 C123.513766,21.6215406 123.7454,21.8539909 124.031225,21.8539909 C124.317131,21.8539909 124.548684,21.6215406 124.548684,21.3351866 L124.548684,18.8978586 C124.548684,18.6115045 124.317131,18.3790543 124.031225,18.3790543 C123.7454,18.3790543 123.513766,18.6115045 123.513766,18.8978586 L123.513766,19.5976373 L115.969708,19.5976373 L115.969708,1.6551024 L122.568301,1.6551024 C127.820072,1.6551024 132.092823,5.93892046 132.092823,11.2045817 C132.092823,11.4910167 132.324457,11.723386 132.610282,11.723386 C132.896107,11.723386 133.12774,11.4910167 133.12774,11.2045817 L133.12774,1.13629811 C133.12774,0.849701228 132.896107,0.617493815 132.610282,0.617493815 L108.517702,0.617493815 C108.231796,0.617493815 108,0.849701228 108,1.13629811 C108,1.42289499 108.231796,1.6551024 108.517702,1.6551024 L109.215609,1.6551024 L109.215609,38.575029 L108.517459,38.57511 C108.231634,38.57511 108,38.8073174 108,39.0939143 C108,39.3802683 108.231634,39.6127185 108.517459,39.6127185 L109.702682,39.6127185 L109.717712,39.6144182 L132.610282,39.6157941 Z M169.589848,39.6112617 L171.464854,39.6112617 C171.595336,39.6112617 171.725005,39.6079433 171.853862,39.6013065 C177.483266,39.3937848 182,34.7072256 182,28.972698 C182,24.8506725 179.607779,21.0627536 175.921628,19.330789 C174.614372,18.6591762 173.281687,17.9901534 171.993199,17.3429025 C170.34154,16.513625 168.633821,15.6563434 166.967213,14.7874069 C165.874367,14.2176125 164.496833,13.4063839 163.538937,12.1813259 C162.720867,11.1348143 162.251262,9.7043389 162.251262,8.2570287 C162.251262,4.6158481 165.184909,1.65348367 168.790627,1.65348367 L170.485265,1.65348367 C175.699663,1.65348367 179.941865,5.93738266 179.941865,11.2030439 C179.941865,11.4894789 180.171874,11.7218482 180.455667,11.7218482 C180.739461,11.7218482 180.969389,11.4894789 180.969389,11.2030439 L180.969389,1.13459844 C180.969389,0.848001558 180.739461,0.615794144 180.455667,0.615794144 L168.790627,0.615794144 C168.660145,0.615794144 168.530476,0.619193485 168.401619,0.625749359 C162.772215,0.833513887 158.255481,5.520073 158.255481,11.2545197 C158.255481,15.3766262 160.647782,19.1643022 164.33369,20.8965096 L172.655521,25.1717484 C172.823213,25.257865 172.991556,25.3427677 173.159249,25.4274274 C174.279637,25.9926894 175.337953,26.5266289 176.180804,27.3978316 C177.339622,28.5954521 178.003974,30.2621007 178.003974,31.9700271 C178.003974,35.6112077 175.070409,38.5736531 171.464691,38.5736531 L169.561249,38.5736531 C169.55345,38.5736531 169.5463,38.5755146 169.538663,38.5759193 C164.334909,38.5634551 160.104975,34.2849788 160.104975,29.0270875 C160.104975,28.7404906 159.875047,28.5082832 159.591253,28.5082832 C159.30746,28.5082832 159.077451,28.7404906 159.077451,29.0270875 L159.077451,39.0953711 C159.077451,39.381968 159.30746,39.6141754 159.591253,39.6141754 L169.561493,39.6141754 C169.571161,39.6141754 169.580424,39.6119092 169.589848,39.6112617 L169.589848,39.6112617 Z M145.153678,39.6127185 L147.028683,39.6127185 C147.159246,39.6127185 147.288916,39.6094001 147.417773,39.6027633 C153.047095,39.3952416 157.563911,34.7086825 157.563911,28.9741549 C157.563911,24.8521293 155.171609,21.0642105 151.485457,19.3321649 C150.178283,18.6606331 148.845598,17.9916103 147.55711,17.3443594 C145.905451,16.5150819 144.197732,15.6578003 142.531042,14.7888638 C141.438196,14.2189884 140.060744,13.4078408 139.102848,12.1827828 C138.284696,11.1362711 137.815173,9.70579576 137.815173,8.25848556 C137.815173,4.61730496 140.748739,1.65485959 144.354538,1.65485959 L146.049095,1.65485959 C151.263573,1.65485959 155.505776,5.93883952 155.505776,11.2045008 C155.505776,11.4909358 155.735703,11.7233051 156.019497,11.7233051 C156.303372,11.7233051 156.5333,11.4909358 156.5333,11.2045008 L156.5333,1.1360553 C156.5333,0.849458418 156.303372,0.617251004 156.019497,0.617251004 L144.354456,0.617251004 C144.223975,0.617251004 144.094305,0.620569409 143.965448,0.62720622 C138.336125,0.834970748 133.81931,5.52144892 133.81931,11.2559765 C133.81931,15.378083 136.211612,19.1657591 139.89752,20.8979665 L148.219431,25.1732052 C148.387124,25.2593219 148.555385,25.3441436 148.723078,25.4288843 C149.843467,25.9941463 150.901864,26.5280857 151.744634,27.3992885 C152.903452,28.5969089 153.567885,30.2635576 153.567885,31.971484 C153.567885,35.6126646 150.63432,38.57511 147.028521,38.57511 L145.12516,38.57511 C145.117361,38.57511 145.11013,38.5769715 145.102492,38.5773762 C139.898738,38.5649119 135.668886,34.2863548 135.668886,29.0285444 C135.668886,28.7419475 135.438877,28.5097401 135.155083,28.5097401 C134.871289,28.5097401 134.641362,28.7419475 134.641362,29.0285444 L134.641362,39.096828 C134.641362,39.3833439 134.871289,39.6156323 135.155083,39.6156323 L145.125323,39.6156323 C145.134991,39.6156323 145.144253,39.6132851 145.153678,39.6127185 L145.153678,39.6127185 Z" id="Fill-13"></path>
                </g>
            </g>
        </g>
    </g>
</svg>